<?xml version="1.0" encoding="utf-8"?>
<!-- Generator: Adobe Illustrator 15.0.0, SVG Export Plug-In . SVG Version: 6.00 Build 0)  -->
<!DOCTYPE svg PUBLIC "-//W3C//DTD SVG 1.1//EN" "http://www.w3.org/Graphics/SVG/1.1/DTD/svg11.dtd">
<svg version="1.1" id="圖層_1" xmlns="http://www.w3.org/2000/svg" xmlns:xlink="http://www.w3.org/1999/xlink" x="0px" y="0px"
	 width="200px" height="200px" viewBox="0 0 200 200" enable-background="new 0 0 200 200" xml:space="preserve">
<g>
	<path fill-rule="evenodd" clip-rule="evenodd" fill="#66806C" d="M121.8,26.068c3.138-1.545,8.629-3.935,11.206,0.631
		c-0.96,0.431-2.253,0.513-1.904,2.235c1.021,0.702,3.591,0.867,5.426,2.26c2.607-2.195,7.526-2.567,10.581-1.605
		c0.696,2.796-2.925,3.987-4.807,3.846c0.702,6.123,8.542,3.763,9.278,10.251c-2.235,0.808-4.565-2.028-6.712-2.56
		c-2.761-0.714-5.84,1.457-8.016-1.292c0.07-2.265,2.176-1.964,3.521-1.905c-0.407-1.728-1.487-2.808-3.198-3.215
		c-1.669,3.167-7.75,5.338-8.327-0.33c1.728-1.014,2.884-0.973,4.789-1.274c-4.194-4.884-9.645,1.574-14.716,0
		c-1.439-1.08-0.974-3.875,0-5.12c-1.428-0.519-7.756,0.366-9.928-2.56c2.142-0.325,3.363-1.28,5.764-1.28
		c0.955-0.442,0.56-2.224,0.643-3.533C118.628,16.553,120.909,22.357,121.8,26.068z"/>
	<path fill-rule="evenodd" clip-rule="evenodd" fill="#66806C" d="M155.096,23.502c2.625,2.813,5.189,7.491,8.01,10.251
		c2.087,2.034,5.314,2.861,7.048,5.131c5.722,7.419-3.325,20.019,2.874,28.489c4.157-2.583,7.266-6.188,9.926-10.24
		c2.111,6.659,6.618,14.816,5.763,23.033c-0.737,7.243-6.364,10.935-10.564,15.052c-0.183,2.554,0.566,4.141,0.324,6.742
		c5.067-2.843,9.202-6.624,14.093-9.609c-2.318,7.462-1.623,17.04-4.483,22.732c-2.371,4.707-5.964,7.938-10.889,10.245
		c-1.352,0.614-3.415,0.814-4.801,1.917c-2.583,2.047-1.939,6.641-3.846,8.954c3.963-1.469,11.024-2.632,16.969-3.192
		c-3.903,1.547-3.775,5.269-6.074,8.647c-3.782,5.474-10.806,7.392-12.813,14.397c-5.125,0.555-10.592,0.716-16.332,0.661
		c-3.343,2.731-6.216,5.951-10.887,7.355c2.063,3.705,8.427,5.887,13.122,7.999c-10.782,0.313-22.177,8.899-32.334,1.284
		c-1.469,0.131-3.521-0.323-4.477,0.32c-1.469,4.364-11.813,11.754-13.46,2.89c3.74-2.13,8.688-3.068,11.862-5.774
		c-1.476-13.095,11.235-13.732,19.204-16.32c-0.277,2.487-0.944,4.606-1.599,6.724c3.15-0.607,7.154-1.775,8.642-4.807
		c1.633-3.333,1.597-7.102,3.515-10.252c3.516-5.728,10.676-8.605,14.104-15.365c1.45,2.178,1.586,5.675,1.586,9.284
		c5.243-2.005,5.072-8.9,4.496-16.32c-0.791-10.034,2.459-19.452,5.438-25.947c1.58,2.702,2.901,5.645,3.846,8.971
		c2.44-17.471-14.033-21.936-10.252-39.713c2.736-0.059,3.545,1.816,5.113,2.89c0.107-3.315-1.227-5.161-2.559-7.042
		c-12.582,1.664-15.826-5.922-21.44-11.856c-3.257-3.433-6.571-5.916-9.927-8.971c7.383-0.242,13.271,1.032,17.919,3.539
		C152.082,37.133,152.348,29.076,155.096,23.502z"/>
	<path fill-rule="evenodd" clip-rule="evenodd" fill="#66806C" d="M94.26,37.587c19.683-1.61,35.017,5.934,45.153,15.059
		c9.955,8.936,18.856,21.805,20.165,40.008c1.947,26.612-11.019,44.903-25.94,55.396c-15.501,10.941-43.07,14.627-63.372,3.533
		c-17.948-9.791-29.703-27.009-31.396-49.952c-0.926-12.576,2.837-25.28,7.048-32.978c4.159-7.614,11.319-15.831,19.21-21.121
		C72.543,42.547,81.172,38.672,94.26,37.587z M71.215,46.233c-6.571,3.545-11.667,8.028-16.013,12.818
		c-8.352,9.171-16.061,23.345-14.728,43.215c1.168,17.335,9.107,29.711,18.892,38.758c10.523,9.696,23.705,16.185,41.943,15.689
		c31.292-0.878,56.605-25.934,56.684-58.929c0.018-9.243-2.171-17.406-5.78-24.967c-9.167-19.294-28.378-35.767-58.271-33.295
		C85,40.253,77.515,42.842,71.215,46.233z"/>
	<path fill-rule="evenodd" clip-rule="evenodd" fill="#66806C" d="M98.112,48.487c-0.46,9.673,0,20.267-0.649,29.769
		c1.18,0,2.36,0,3.527,0c0.643-10.168,0.201-19.859,0.643-29.769c26.814,2.424,46.633,20.166,48.019,48.018
		c1.05,20.743-9.442,34.558-21.771,43.235c-3.067-1.322-6.052-5.469-8.629-8.323c9.856-6.561,18.674-14.965,19.836-29.456
		c1.61-19.8-12.599-36.476-28.176-41c-0.892,24.631-0.537,44.851-1.274,68.202c-2.979,0-5.976,0-8.966,0
		c-0.225-5.432,0.431-11.75-0.318-16.651c-0.53-0.536-1.888-0.241-2.891-0.317c-1.002,4.688-0.514,10.463-0.625,16.645
		c-3.097,0-6.194,0-9.308,0c0.537-22.86,0.82-44.597,0.979-68.202C73.362,64.984,58.87,79.176,59.048,99.389
		c0.129,15.069,9.118,24.548,18.886,31.378c-2.342,3.309-5.35,5.97-8.653,8.323c-10.894-8.942-19.246-18.593-20.479-35.544
		C46.59,73.142,65.488,53.271,93.623,48.793C94.46,48.664,96.418,48.269,98.112,48.487z M50.731,94.257
		c-1.303,19.287,6.329,33.656,18.875,42.273c1.953-1.681,3.774-3.491,5.456-5.438c-9.632-6.995-18.013-17.896-17.949-32.346
		c0.142-20.408,15.755-37.135,33.32-40.681c-0.142,6.53,0.313,14.87-0.318,19.86c1.344,0.684,3.887,0.171,5.756,0.33
		c-0.277-7.29,0.282-15.613,0.324-22.095c0-1.87,0.821-4.701-0.967-5.762C71.092,53.848,52.436,68.771,50.731,94.257z
		 M145.824,84.337c-4.95-18.014-21.524-31.444-41.955-33.614c-1.327,8.063-0.313,18.449-0.631,27.533
		c2.872-0.136,4.063,0.573,5.432,0c0.354-6.482-0.731-14.403,0.648-19.859c16.362,4.023,30.43,19.152,31.697,38.433
		c1.168,17.724-8.97,27.191-18.572,34.895c1.491,2.252,3.319,4.164,5.438,5.774C142.851,127.536,151.894,106.449,145.824,84.337z
		 M90.114,80.167c0.212,10.363-0.295,20.013-0.325,30.111c1.811,0,3.627,0,5.438,0c0.03-10.098,0.52-19.748,0.319-30.111
		C93.741,80.167,91.913,80.167,90.114,80.167z M97.463,80.167c0.253,10.399-0.437,19.849-0.313,30.111c1.174,0,2.348,0,3.521,0
		c0.596-8.328,0.225-21.34,0.318-30.111C99.823,80.167,98.643,80.167,97.463,80.167z M102.92,81.122
		c-0.036,9.809,0.159,19.818-0.331,29.155c1.368,0.554,3.61,0.241,5.444,0.317c0.59-9.023-0.023-20.301,0.637-30.098
		C107.272,80.42,103.273,79.241,102.92,81.122z M89.79,112.194c0.207,5.237-0.313,9.72-0.325,14.727c1.811,0,3.628,0,5.433,0
		c-0.142-5.171,0.578-9.454,0.33-14.727C93.417,112.194,91.6,112.194,89.79,112.194z M102.589,112.512c0,4.808,0,9.615,0,14.409
		c0.79,0.137,3.936,0.732,5.444,0c0-4.794,0-9.602,0-14.409C106.216,112.512,104.399,112.512,102.589,112.512z"/>
	<path fill-rule="evenodd" clip-rule="evenodd" fill="#66806C" d="M84.027,71.52c0.207,0,0.412,0,0.636,0
		c-0.601,16.232-0.365,35.607-0.955,52.837C63.076,119.218,63.2,76.386,84.027,71.52z M81.786,74.416
		c-14.452,7.196-15.524,34.493-3.209,44.814c0.796,0.679,1.946,2.26,3.209,1.605c0.755-15.022,0.29-31.302,0.943-46.419
		c-0.201,0-0.413,0-0.625,0C81.998,74.416,81.879,74.416,81.786,74.416z"/>
	<path fill-rule="evenodd" clip-rule="evenodd" fill="#66806C" d="M114.433,71.85c21.434,5.721,20.167,47.192-0.306,53.161
		C113.359,107.322,114.534,89.185,114.433,71.85z M115.725,121.796c16.144-5.29,16.633-41.187,0.637-47.062
		C115.949,90.949,115.725,105.424,115.725,121.796z"/>
	<path fill-rule="evenodd" clip-rule="evenodd" fill="#66806C" d="M96.838,136.2c0,3.745,0,7.473,0,11.219
		c-8.057,0.583-13.141-1.812-18.261-4.158c2.141-3.109,5.055-5.409,7.367-8.317C89.17,135.758,92.497,136.483,96.838,136.2z
		 M86.274,137.174c-1.156,2.165-3.428,3.196-4.489,5.438c3.757,1.576,7.603,3.079,13.112,2.884c0-2.446,0-4.9,0-7.36
		C91.447,138.395,89.247,137.392,86.274,137.174z"/>
	<path fill-rule="evenodd" clip-rule="evenodd" fill="#66806C" d="M118.284,143.892c-4.925,2.146-10.924,4.471-17.931,3.527
		c-0.07-2.571,0.054-7.609,0-11.219c2.755,0.419,7.573-0.07,10.883-0.95C113.555,138.183,116.386,140.576,118.284,143.892z
		 M110.274,137.498c-2.571,0.419-5.178,0.778-8.01,0.944c-0.059,2.948,0.147,5.137-0.301,7.053
		c4.771,0.597,9.202-0.995,13.123-2.234C114.628,141.42,112.085,139.015,110.274,137.498z"/>
	<path fill-rule="evenodd" clip-rule="evenodd" fill="#66806C" d="M113.796,162.465c-3.149,2.932-6.89,5.28-12.487,5.769
		C99.988,161.616,108.428,159.905,113.796,162.465z"/>
	<path fill-rule="evenodd" clip-rule="evenodd" fill="#66806C" d="M112.521,168.871c-6.812,1.846-12.48,4.819-18.261,7.691
		c1.085,0.737,3.527,0.106,5.137,0.313c0.379,6.217-7.591,6.205-11.867,4.151c-2.837,1.829-9.655,2.095-11.843,0.968
		c-0.449-0.968,0.153-1.716,0.33-2.884C88.297,175.825,97.599,169.543,112.521,168.871z"/>
	<path fill-rule="evenodd" clip-rule="evenodd" fill="#66806C" d="M51.043,27.023c-0.1,3.179,3.835,3.71,5.114,4.488
		c0.018,2.242-2.005,2.478-2.878,3.834c-4.217,0.336-7.72,3.934-9.921,8.647c5.031-1.623,8.163-5.604,12.48-5.45
		c2.094,0.089,3.769,1.108,5.445-0.613c0-0.555,0-1.08,0-1.628c-1.41-1.18-2.578-0.171-3.516-1.263
		c1.297-1.191,2.341-2.772,4.158-2.583c0.484,4.134,6.004,4.405,7.68,1.298c0.136-0.773-0.578-0.685-0.325-1.605
		c-1.527-0.896-3.792-1.132-4.471-1.279c4.447-4.89,8.777,2.884,15.053,0.325c1.021-1.582,0.483-3.687-0.325-5.126
		c1.917,0.413,7.68,0.106,10.576-1.917c-2.755-1.251-4.259-0.903-6.73-1.929c-0.023-9.089-6.482-2.43-6.724,2.242
		c-2.996-1.894-9.042-4.436-11.207,0c0.961,0.431,2.153,0.607,2.241,1.934c-0.376,0.053-0.194,0.331,0,0.626
		c-1.061,0.46-1.604,0.796-1.604,0C61.525,30.692,56.523,24.64,51.043,27.023z"/>
	<path fill-rule="evenodd" clip-rule="evenodd" fill="#66806C" d="M115.4,20.618c-0.083,1.31,0.313,3.091-0.643,3.533
		c-2.4,0-3.622,0.955-5.764,1.28c2.172,2.925,8.5,2.041,9.928,2.56c-0.974,1.245-1.439,4.041,0,5.12
		c5.071,1.574,10.521-4.884,14.716,0c-1.905,0.301-3.062,0.26-4.789,1.274c0.577,5.668,6.658,3.498,8.327,0.33
		c1.711,0.407,2.791,1.487,3.198,3.215c-1.346-0.059-3.451-0.36-3.521,1.905c2.176,2.749,5.255,0.578,8.016,1.292
		c2.146,0.531,4.477,3.368,6.712,2.56c-0.736-6.488-8.576-4.128-9.278-10.251c1.882,0.141,5.503-1.05,4.807-3.846
		c-3.055-0.962-7.974-0.59-10.581,1.605c-1.835-1.393-4.405-1.558-5.426-2.26c-0.349-1.722,0.944-1.805,1.904-2.235
		c-2.577-4.566-8.068-2.176-11.206-0.631C120.909,22.357,118.628,16.553,115.4,20.618z"/>
	<path fill-rule="evenodd" clip-rule="evenodd" fill="#66806C" d="M31.827,125.637c-0.389-4.088,1.545-8.955,0.956-14.08
		c-0.466-4.1-1.445-9.189-0.301-13.123c-5.208-0.501-5.102,4.289-6.412,7.674c-0.218-4.264,0.301-7.792,0.313-11.85
		c10.446-4.707,8.683-21.623,15.371-30.081c-1.77-0.726-4.86-0.236-6.718,0c0.59-1.233,0.148-3.492,1.268-4.176
		c16.804,0.271,19.518-13.572,29.45-20.167c-10.812-0.276-19.299,3.521-24.631,7.698c3.178-11.472-6.188-17.182-4.819-27.87
		c-2.595,11.626-12.021,16.304-11.524,28.49c0.117,2.706,1.008,5.066,1.917,7.378c0.696,1.722,2.684,4.252,2.896,6.388
		c0.454,4.848-3.232,9.337-5.138,12.817c-3.869-6.046-7.366-12.475-15.683-14.097c5.013,8.399,1.192,23.481,7.042,31.066
		c1.817,2.359,3.887,3.079,5.775,5.45c-0.118,4.359-0.744,8.204-0.968,12.474c-4.247-4.594-9.768-9.648-15.041-12.161
		c5.568,8.04,3.297,21.464,11.519,26.891c2.525,1.68,5.657,2.564,9.933,3.214c1.203,3.168,3.781,6.672,4.795,8.96
		c-5.686-3.168-11.596-6.129-19.529-7.043c2.064,2.077,2.383,4.967,3.515,7.687c2.059,4.931,8.175,13.396,12.493,15.688
		c5.604,2.974,13.672,1.682,22.095,2.873c0.602,2.389,3.799,3.887,3.846,5.774c-5.792,0.083-11.03-0.023-15.685-0.318
		c2.148,4.294,5.392,6.849,8.954,9.597c3.468,2.685,7.155,6.394,11.212,7.691c7.096,2.253,12.764-1.663,16.657-4.165
		c1.858-1.19,3.958-3.379,5.751-3.851c1.297-0.319,2.925,0.094,4.164,0c5.243-0.36,9.443-1.705,13.118-4.478c0-1.28,0-2.56,0-3.851
		c-4.253,0-8.529,0-12.805,0c-0.377,1.231,0.106,3.32-0.95,3.851c-2.017-0.012-3.355-0.708-5.125-0.955
		c-6.494-6.524-15.984-10.063-22.095-16.981c-0.425,4.075,1.775,7.202,1.922,9.613c-2.56-1.396-4.801-3.096-6.729-5.125
		c0.207-15.146-12.204-17.677-16.633-28.182c-0.555,3.243-0.478,7.432,0.625,9.927C35.201,132.083,32.181,129.364,31.827,125.637z"
		/>
	<path fill-rule="evenodd" clip-rule="evenodd" fill="#66806C" d="M152.212,45.603c-4.648-2.507-10.536-3.78-17.919-3.539
		c3.355,3.055,6.67,5.538,9.927,8.971c5.614,5.934,8.858,13.52,21.44,11.856c1.332,1.881,2.666,3.728,2.559,7.042
		c-1.568-1.074-2.377-2.949-5.113-2.89c-3.781,17.777,12.692,22.242,10.252,39.713c-0.944-3.326-2.266-6.27-3.846-8.971
		c-2.979,6.495-6.229,15.913-5.438,25.947c0.576,7.42,0.747,14.315-4.496,16.32c0-3.609-0.136-7.106-1.586-9.284
		c-3.428,6.76-10.588,9.638-14.104,15.365c-1.918,3.15-1.882,6.919-3.515,10.252c-1.487,3.031-5.491,4.199-8.642,4.807
		c0.654-2.117,1.321-4.236,1.599-6.724c-7.969,2.588-20.68,3.226-19.204,16.32c-3.174,2.706-8.122,3.645-11.862,5.774
		c1.646,8.864,11.991,1.475,13.46-2.89c0.956-0.644,3.008-0.189,4.477-0.32c10.157,7.615,21.552-0.972,32.334-1.284
		c-4.695-2.112-11.059-4.294-13.122-7.999c4.671-1.404,7.544-4.624,10.887-7.355c5.74,0.055,11.207-0.106,16.332-0.661
		c2.007-7.006,9.03-8.924,12.813-14.397c2.299-3.379,2.171-7.101,6.074-8.647c-5.944,0.561-13.006,1.724-16.969,3.192
		c1.906-2.313,1.263-6.907,3.846-8.954c1.386-1.103,3.449-1.303,4.801-1.917c4.925-2.307,8.518-5.538,10.889-10.245
		c2.86-5.692,2.165-15.27,4.483-22.732c-4.891,2.985-9.025,6.766-14.093,9.609c0.242-2.601-0.507-4.188-0.324-6.742
		c4.2-4.117,9.827-7.809,10.564-15.052c0.855-8.216-3.651-16.374-5.763-23.033c-2.66,4.052-5.769,7.656-9.926,10.24
		c-6.199-8.47,2.848-21.069-2.874-28.489c-1.733-2.271-4.961-3.097-7.048-5.131c-2.82-2.76-5.385-7.438-8.01-10.251
		C152.348,29.076,152.082,37.133,152.212,45.603z"/>
	<path fill-rule="evenodd" clip-rule="evenodd" fill="#66806C" d="M101.309,168.233c5.598-0.488,9.338-2.837,12.487-5.769
		C108.428,159.905,99.988,161.616,101.309,168.233z"/>
	<path fill-rule="evenodd" clip-rule="evenodd" fill="#66806C" d="M76.017,179.11c-0.177,1.168-0.779,1.916-0.33,2.884
		c2.188,1.127,9.006,0.861,11.843-0.968c4.276,2.054,12.247,2.065,11.867-4.151c-1.61-0.206-4.051,0.425-5.137-0.313
		c5.781-2.872,11.45-5.846,18.261-7.691C97.599,169.543,88.297,175.825,76.017,179.11z"/>
	<path fill-rule="evenodd" clip-rule="evenodd" fill="#66806C" d="M66.09,27.023c0,0.796,0.543,0.46,1.604,0
		c-0.194-0.295-0.376-0.573,0-0.626c-0.087-1.327-1.28-1.503-2.241-1.934c2.164-4.436,8.21-1.894,11.207,0
		c0.242-4.672,6.701-11.331,6.724-2.242c2.471,1.026,3.976,0.678,6.73,1.929c-2.896,2.023-8.659,2.33-10.576,1.917
		c0.808,1.439,1.345,3.544,0.325,5.126c-6.275,2.56-10.605-5.215-15.053-0.325c0.678,0.147,2.944,0.383,4.471,1.279
		c-0.253,0.92,0.461,0.832,0.325,1.605c-1.675,3.107-7.196,2.836-7.68-1.298c-1.817-0.189-2.861,1.392-4.158,2.583
		c0.938,1.092,2.106,0.083,3.516,1.263c0,0.548,0,1.073,0,1.628c-1.676,1.722-3.351,0.702-5.445,0.613
		c-4.317-0.153-7.449,3.828-12.48,5.45c2.201-4.713,5.704-8.311,9.921-8.647c0.873-1.357,2.896-1.592,2.878-3.834
		c-1.279-0.778-5.213-1.309-5.114-4.488C56.523,24.64,61.525,30.692,66.09,27.023z"/>
	<path fill-rule="evenodd" clip-rule="evenodd" fill="#66806C" d="M36.628,134.283c-1.103-2.495-1.179-6.684-0.625-9.927
		c4.429,10.505,16.839,13.035,16.633,28.182c1.929,2.029,4.169,3.729,6.729,5.125c-0.147-2.411-2.347-5.538-1.922-9.613
		c6.11,6.919,15.601,10.457,22.095,16.981c1.77,0.247,3.108,0.943,5.125,0.955c1.056-0.53,0.573-2.619,0.95-3.851
		c4.276,0,8.552,0,12.805,0c0,1.291,0,2.57,0,3.851c-3.675,2.772-7.875,4.117-13.118,4.478c-1.239,0.094-2.867-0.319-4.164,0
		c-1.793,0.472-3.893,2.66-5.751,3.851c-3.893,2.502-9.561,6.418-16.657,4.165c-4.058-1.298-7.744-5.007-11.212-7.691
		c-3.562-2.748-6.806-5.303-8.954-9.597c4.654,0.295,9.893,0.401,15.685,0.318c-0.047-1.888-3.245-3.386-3.846-5.774
		c-8.423-1.191-16.491,0.101-22.095-2.873c-4.317-2.293-10.434-10.758-12.493-15.688c-1.132-2.72-1.451-5.609-3.515-7.687
		c7.933,0.914,13.843,3.875,19.529,7.043c-1.014-2.288-3.592-5.792-4.795-8.96c-4.276-0.649-7.408-1.534-9.933-3.214
		c-8.222-5.427-5.951-18.851-11.519-26.891c5.273,2.513,10.793,7.567,15.041,12.161c0.224-4.27,0.85-8.114,0.968-12.474
		c-1.888-2.371-3.958-3.091-5.775-5.45c-5.851-7.585-2.029-22.667-7.042-31.066c8.317,1.623,11.814,8.051,15.683,14.097
		c1.906-3.479,5.592-7.969,5.138-12.817c-0.212-2.136-2.2-4.666-2.896-6.388c-0.908-2.312-1.8-4.672-1.917-7.378
		c-0.497-12.186,8.929-16.864,11.524-28.49c-1.369,10.688,7.998,16.398,4.819,27.87c5.332-4.176,13.819-7.974,24.631-7.698
		C55.822,46.429,53.107,60.271,36.304,60c-1.12,0.684-0.678,2.943-1.268,4.176c1.857-0.236,4.948-0.726,6.718,0
		c-6.688,8.458-4.925,25.375-15.371,30.081c-0.011,4.058-0.531,7.586-0.313,11.85c1.31-3.385,1.204-8.175,6.412-7.674
		c-1.145,3.934-0.165,9.023,0.301,13.123c0.589,5.125-1.345,9.992-0.956,14.08C32.181,129.364,35.201,132.083,36.628,134.283z"/>
</g>
</svg>
